<mxfile host="app.diagrams.net" modified="2024-04-16T11:51:25.151Z" agent="Mozilla/5.0 (Windows NT 10.0; Win64; x64) AppleWebKit/537.36 (KHTML, like Gecko) Chrome/121.0.0.0 Safari/537.36 OPR/107.0.0.0" etag="pHIJuPP3bM6RCkGHyxkN" version="24.2.5" type="github">
  <diagram name="Strona-1" id="8ww9L-g64IQBj1eRSzWD">
    <mxGraphModel dx="2173" dy="2013" grid="1" gridSize="10" guides="1" tooltips="1" connect="1" arrows="1" fold="1" page="1" pageScale="1" pageWidth="1169" pageHeight="827" math="0" shadow="0">
      <root>
        <mxCell id="0" />
        <mxCell id="1" parent="0" />
        <mxCell id="YFiqXwNewB6xpeX7jggf-7" value="Recepcjonista" style="shape=umlActor;verticalLabelPosition=bottom;verticalAlign=top;html=1;" parent="1" vertex="1">
          <mxGeometry x="180" y="20" width="30" height="60" as="geometry" />
        </mxCell>
        <mxCell id="YFiqXwNewB6xpeX7jggf-23" value="1: PokażWolnePokoje(od_kiedy, do_kiedy)" style="edgeStyle=orthogonalEdgeStyle;rounded=0;orthogonalLoop=1;jettySize=auto;html=1;curved=0;exitX=1;exitY=0;exitDx=0;exitDy=5;exitPerimeter=0;entryX=0;entryY=0;entryDx=0;entryDy=5;entryPerimeter=0;labelBackgroundColor=none;verticalAlign=bottom;" parent="1" source="YFiqXwNewB6xpeX7jggf-8" target="YFiqXwNewB6xpeX7jggf-18" edge="1">
          <mxGeometry relative="1" as="geometry">
            <mxPoint as="offset" />
          </mxGeometry>
        </mxCell>
        <mxCell id="YFiqXwNewB6xpeX7jggf-8" value="" style="html=1;points=[[0,0,0,0,5],[0,1,0,0,-5],[1,0,0,0,5],[1,1,0,0,-5]];perimeter=orthogonalPerimeter;outlineConnect=0;targetShapes=umlLifeline;portConstraint=eastwest;newEdgeStyle={&quot;curved&quot;:0,&quot;rounded&quot;:0};" parent="1" vertex="1">
          <mxGeometry x="190" y="116" width="10" height="924" as="geometry" />
        </mxCell>
        <mxCell id="YFiqXwNewB6xpeX7jggf-54" value="5: CzyWolny(od_kiedy, do_kiedy)" style="edgeStyle=orthogonalEdgeStyle;curved=0;rounded=0;orthogonalLoop=1;jettySize=auto;html=1;exitX=1;exitY=0;exitDx=0;exitDy=5;exitPerimeter=0;entryX=0;entryY=0;entryDx=0;entryDy=5;entryPerimeter=0;strokeColor=default;align=center;verticalAlign=bottom;fontFamily=Helvetica;fontSize=11;fontColor=default;labelBackgroundColor=none;endArrow=block;endFill=1;" parent="1" target="YFiqXwNewB6xpeX7jggf-53" edge="1">
          <mxGeometry relative="1" as="geometry">
            <mxPoint x="470" y="334.9999999999999" as="sourcePoint" />
          </mxGeometry>
        </mxCell>
        <mxCell id="YFiqXwNewB6xpeX7jggf-55" value="&amp;lt;&amp;lt;return&amp;gt;&amp;gt;&lt;div&gt;6: CzyWolny&lt;/div&gt;" style="edgeStyle=orthogonalEdgeStyle;curved=0;rounded=0;orthogonalLoop=1;jettySize=auto;html=1;exitX=0;exitY=1;exitDx=0;exitDy=-5;exitPerimeter=0;entryX=1;entryY=1;entryDx=0;entryDy=-5;entryPerimeter=0;dashed=1;dashPattern=12 12;strokeColor=default;align=center;verticalAlign=middle;fontFamily=Helvetica;fontSize=11;fontColor=default;labelBackgroundColor=none;endArrow=open;endFill=0;endSize=10;" parent="1" source="YFiqXwNewB6xpeX7jggf-53" edge="1">
          <mxGeometry relative="1" as="geometry">
            <mxPoint x="470" y="374.9999999999999" as="targetPoint" />
          </mxGeometry>
        </mxCell>
        <mxCell id="YFiqXwNewB6xpeX7jggf-56" value="loop" style="shape=umlFrame;whiteSpace=wrap;html=1;pointerEvents=0;fontFamily=Helvetica;fontSize=11;fontColor=default;labelBackgroundColor=none;" parent="1" vertex="1">
          <mxGeometry x="280" y="256" width="720" height="430" as="geometry" />
        </mxCell>
        <mxCell id="YFiqXwNewB6xpeX7jggf-58" value="[i=1..IlośćPokoi]" style="text;strokeColor=none;align=center;fillColor=none;html=1;verticalAlign=middle;whiteSpace=wrap;rounded=0;fontFamily=Helvetica;fontSize=11;fontColor=default;labelBackgroundColor=none;" parent="1" vertex="1">
          <mxGeometry x="300" y="296" width="60" height="30" as="geometry" />
        </mxCell>
        <mxCell id="YFiqXwNewB6xpeX7jggf-68" value="3:Ilość()" style="edgeStyle=orthogonalEdgeStyle;curved=0;rounded=0;orthogonalLoop=1;jettySize=auto;html=1;exitX=1;exitY=0;exitDx=0;exitDy=5;exitPerimeter=0;entryX=0;entryY=0;entryDx=0;entryDy=5;entryPerimeter=0;strokeColor=default;align=center;verticalAlign=bottom;fontFamily=Helvetica;fontSize=11;fontColor=default;labelBackgroundColor=none;endArrow=block;endFill=1;endSize=10;" parent="1" target="YFiqXwNewB6xpeX7jggf-65" edge="1">
          <mxGeometry relative="1" as="geometry">
            <mxPoint x="470" y="191" as="sourcePoint" />
          </mxGeometry>
        </mxCell>
        <mxCell id="YFiqXwNewB6xpeX7jggf-69" value="&amp;lt;&amp;lt;return&amp;gt;&amp;gt;&lt;div&gt;4: IlośćPokoi&lt;/div&gt;" style="edgeStyle=orthogonalEdgeStyle;curved=0;rounded=0;orthogonalLoop=1;jettySize=auto;html=1;exitX=0;exitY=1;exitDx=0;exitDy=-5;exitPerimeter=0;entryX=1;entryY=1;entryDx=0;entryDy=-5;entryPerimeter=0;dashed=1;dashPattern=12 12;strokeColor=default;align=center;verticalAlign=middle;fontFamily=Helvetica;fontSize=11;fontColor=default;labelBackgroundColor=none;endArrow=open;endFill=0;endSize=10;" parent="1" source="YFiqXwNewB6xpeX7jggf-65" edge="1">
          <mxGeometry relative="1" as="geometry">
            <mxPoint x="470" y="231" as="targetPoint" />
          </mxGeometry>
        </mxCell>
        <mxCell id="YFiqXwNewB6xpeX7jggf-74" value="opt" style="shape=umlFrame;whiteSpace=wrap;html=1;pointerEvents=0;fontFamily=Helvetica;fontSize=11;fontColor=default;labelBackgroundColor=none;" parent="1" vertex="1">
          <mxGeometry x="340" y="426" width="640" height="220" as="geometry" />
        </mxCell>
        <mxCell id="YFiqXwNewB6xpeX7jggf-76" value="7: NrPokoju(i)" style="edgeStyle=orthogonalEdgeStyle;curved=0;rounded=0;orthogonalLoop=1;jettySize=auto;html=1;exitX=1;exitY=0;exitDx=0;exitDy=5;exitPerimeter=0;entryX=0;entryY=0;entryDx=0;entryDy=5;entryPerimeter=0;strokeColor=default;align=center;verticalAlign=bottom;fontFamily=Helvetica;fontSize=11;fontColor=default;labelBackgroundColor=none;endArrow=block;endFill=1;endSize=10;" parent="1" target="YFiqXwNewB6xpeX7jggf-71" edge="1">
          <mxGeometry relative="1" as="geometry">
            <mxPoint x="470" y="491" as="sourcePoint" />
          </mxGeometry>
        </mxCell>
        <mxCell id="YFiqXwNewB6xpeX7jggf-77" value="&amp;lt;&amp;lt;return&amp;gt;&amp;gt;&lt;div&gt;8:NrP&lt;/div&gt;" style="edgeStyle=orthogonalEdgeStyle;curved=0;rounded=0;orthogonalLoop=1;jettySize=auto;html=1;exitX=0;exitY=1;exitDx=0;exitDy=-5;exitPerimeter=0;entryX=1;entryY=1;entryDx=0;entryDy=-5;entryPerimeter=0;dashed=1;dashPattern=12 12;strokeColor=default;align=center;verticalAlign=middle;fontFamily=Helvetica;fontSize=11;fontColor=default;labelBackgroundColor=none;endArrow=open;endFill=0;endSize=10;" parent="1" source="YFiqXwNewB6xpeX7jggf-71" edge="1">
          <mxGeometry relative="1" as="geometry">
            <mxPoint x="470" y="531" as="targetPoint" />
          </mxGeometry>
        </mxCell>
        <mxCell id="YFiqXwNewB6xpeX7jggf-83" value="9: DodajWpis(NrP, od_kiedy, do_kiedy)" style="edgeStyle=orthogonalEdgeStyle;curved=0;rounded=0;orthogonalLoop=1;jettySize=auto;html=1;exitX=1;exitY=0;exitDx=0;exitDy=5;exitPerimeter=0;entryX=0;entryY=0;entryDx=0;entryDy=5;entryPerimeter=0;strokeColor=default;align=center;verticalAlign=bottom;fontFamily=Helvetica;fontSize=11;fontColor=default;labelBackgroundColor=none;endArrow=block;endFill=1;endSize=10;" parent="1" target="YFiqXwNewB6xpeX7jggf-80" edge="1">
          <mxGeometry relative="1" as="geometry">
            <mxPoint x="470" y="581" as="sourcePoint" />
          </mxGeometry>
        </mxCell>
        <mxCell id="YFiqXwNewB6xpeX7jggf-105" style="edgeStyle=orthogonalEdgeStyle;curved=0;rounded=0;orthogonalLoop=1;jettySize=auto;html=1;dashed=1;dashPattern=12 12;strokeColor=default;align=center;verticalAlign=middle;fontFamily=Helvetica;fontSize=11;fontColor=default;labelBackgroundColor=none;endArrow=none;endFill=0;endSize=10;" parent="1" source="YFiqXwNewB6xpeX7jggf-88" target="YFiqXwNewB6xpeX7jggf-100" edge="1">
          <mxGeometry relative="1" as="geometry">
            <Array as="points">
              <mxPoint x="840" y="731" />
              <mxPoint x="840" y="731" />
            </Array>
          </mxGeometry>
        </mxCell>
        <mxCell id="YFiqXwNewB6xpeX7jggf-88" value="Recepcjonista wybiera odpowiedni wpis(nr_wpisu) i dokonuje rezerwacji" style="shape=note;size=20;whiteSpace=wrap;html=1;fontFamily=Helvetica;fontSize=11;fontColor=default;labelBackgroundColor=none;" parent="1" vertex="1">
          <mxGeometry x="900" y="720" width="160" height="70" as="geometry" />
        </mxCell>
        <mxCell id="YFiqXwNewB6xpeX7jggf-92" value="11: DokonajRezerwacje(nr_wpisu)" style="edgeStyle=orthogonalEdgeStyle;curved=0;rounded=0;orthogonalLoop=1;jettySize=auto;html=1;entryX=0;entryY=0;entryDx=0;entryDy=5;entryPerimeter=0;strokeColor=default;align=center;verticalAlign=bottom;fontFamily=Helvetica;fontSize=11;fontColor=default;labelBackgroundColor=none;endArrow=block;endFill=1;endSize=10;" parent="1" target="YFiqXwNewB6xpeX7jggf-87" edge="1">
          <mxGeometry relative="1" as="geometry">
            <mxPoint x="200" y="855" as="sourcePoint" />
            <Array as="points">
              <mxPoint x="380" y="855" />
              <mxPoint x="380" y="855" />
            </Array>
          </mxGeometry>
        </mxCell>
        <mxCell id="YFiqXwNewB6xpeX7jggf-95" value="&amp;lt;&amp;lt;destroy&amp;gt;&amp;gt;&lt;div&gt;13: Zamknij()&lt;/div&gt;" style="edgeStyle=orthogonalEdgeStyle;curved=0;rounded=0;orthogonalLoop=1;jettySize=auto;html=1;strokeColor=default;align=center;verticalAlign=middle;fontFamily=Helvetica;fontSize=11;fontColor=default;labelBackgroundColor=none;endArrow=block;endFill=1;endSize=10;" parent="1" target="YFiqXwNewB6xpeX7jggf-93" edge="1">
          <mxGeometry relative="1" as="geometry">
            <mxPoint x="200" y="960.0769230769229" as="sourcePoint" />
            <mxPoint x="865" y="959" as="targetPoint" />
            <Array as="points">
              <mxPoint x="390" y="960" />
              <mxPoint x="390" y="960" />
            </Array>
          </mxGeometry>
        </mxCell>
        <mxCell id="YFiqXwNewB6xpeX7jggf-98" value=": Hotel" style="shape=umlLifeline;perimeter=lifelinePerimeter;whiteSpace=wrap;html=1;container=1;dropTarget=0;collapsible=0;recursiveResize=0;outlineConnect=0;portConstraint=eastwest;newEdgeStyle={&quot;curved&quot;:0,&quot;rounded&quot;:0};fontFamily=Helvetica;fontSize=11;fontColor=default;labelBackgroundColor=none;" parent="1" vertex="1">
          <mxGeometry x="415" y="30" width="100" height="1010" as="geometry" />
        </mxCell>
        <mxCell id="YFiqXwNewB6xpeX7jggf-18" value="" style="html=1;points=[[0,0,0,0,5],[0,1,0,0,-5],[1,0,0,0,5],[1,1,0,0,-5]];perimeter=orthogonalPerimeter;outlineConnect=0;targetShapes=umlLifeline;portConstraint=eastwest;newEdgeStyle={&quot;curved&quot;:0,&quot;rounded&quot;:0};" parent="YFiqXwNewB6xpeX7jggf-98" vertex="1">
          <mxGeometry x="45" y="86" width="10" height="594" as="geometry" />
        </mxCell>
        <mxCell id="YFiqXwNewB6xpeX7jggf-99" value=": Pokój" style="shape=umlLifeline;perimeter=lifelinePerimeter;whiteSpace=wrap;html=1;container=1;dropTarget=0;collapsible=0;recursiveResize=0;outlineConnect=0;portConstraint=eastwest;newEdgeStyle={&quot;curved&quot;:0,&quot;rounded&quot;:0};fontFamily=Helvetica;fontSize=11;fontColor=default;labelBackgroundColor=none;" parent="1" vertex="1">
          <mxGeometry x="605" y="30" width="100" height="1010" as="geometry" />
        </mxCell>
        <mxCell id="YFiqXwNewB6xpeX7jggf-65" value="" style="html=1;points=[[0,0,0,0,5],[0,1,0,0,-5],[1,0,0,0,5],[1,1,0,0,-5]];perimeter=orthogonalPerimeter;outlineConnect=0;targetShapes=umlLifeline;portConstraint=eastwest;newEdgeStyle={&quot;curved&quot;:0,&quot;rounded&quot;:0};fontFamily=Helvetica;fontSize=11;fontColor=default;labelBackgroundColor=none;" parent="YFiqXwNewB6xpeX7jggf-99" vertex="1">
          <mxGeometry x="45" y="156" width="10" height="50" as="geometry" />
        </mxCell>
        <mxCell id="YFiqXwNewB6xpeX7jggf-53" value="" style="html=1;points=[[0,0,0,0,5],[0,1,0,0,-5],[1,0,0,0,5],[1,1,0,0,-5]];perimeter=orthogonalPerimeter;outlineConnect=0;targetShapes=umlLifeline;portConstraint=eastwest;newEdgeStyle={&quot;curved&quot;:0,&quot;rounded&quot;:0};fontFamily=Helvetica;fontSize=11;fontColor=default;labelBackgroundColor=none;" parent="YFiqXwNewB6xpeX7jggf-99" vertex="1">
          <mxGeometry x="45" y="300" width="10" height="50" as="geometry" />
        </mxCell>
        <mxCell id="YFiqXwNewB6xpeX7jggf-71" value="" style="html=1;points=[[0,0,0,0,5],[0,1,0,0,-5],[1,0,0,0,5],[1,1,0,0,-5]];perimeter=orthogonalPerimeter;outlineConnect=0;targetShapes=umlLifeline;portConstraint=eastwest;newEdgeStyle={&quot;curved&quot;:0,&quot;rounded&quot;:0};fontFamily=Helvetica;fontSize=11;fontColor=default;labelBackgroundColor=none;" parent="YFiqXwNewB6xpeX7jggf-99" vertex="1">
          <mxGeometry x="45" y="456" width="10" height="50" as="geometry" />
        </mxCell>
        <mxCell id="YFiqXwNewB6xpeX7jggf-107" value="&amp;lt;&amp;lt;return&amp;gt;&amp;gt;&lt;div&gt;10: OknoWynikowe\SpisWolnychPokoi&lt;/div&gt;" style="edgeStyle=orthogonalEdgeStyle;curved=0;rounded=0;orthogonalLoop=1;jettySize=auto;html=1;dashed=1;dashPattern=12 12;strokeColor=default;align=center;verticalAlign=middle;fontFamily=Helvetica;fontSize=11;fontColor=default;labelBackgroundColor=none;endArrow=open;endFill=0;endSize=10;exitX=0;exitY=1;exitDx=0;exitDy=-5;exitPerimeter=0;" parent="1" source="YFiqXwNewB6xpeX7jggf-18" target="YFiqXwNewB6xpeX7jggf-8" edge="1">
          <mxGeometry relative="1" as="geometry">
            <Array as="points">
              <mxPoint x="340" y="705" />
              <mxPoint x="340" y="705" />
            </Array>
            <mxPoint as="offset" />
          </mxGeometry>
        </mxCell>
        <mxCell id="YFiqXwNewB6xpeX7jggf-100" value=": OknoWynikowe" style="shape=umlLifeline;perimeter=lifelinePerimeter;whiteSpace=wrap;html=1;container=1;dropTarget=0;collapsible=0;recursiveResize=0;outlineConnect=0;portConstraint=eastwest;newEdgeStyle={&quot;curved&quot;:0,&quot;rounded&quot;:0};fontFamily=Helvetica;fontSize=11;fontColor=default;labelBackgroundColor=none;" parent="1" vertex="1">
          <mxGeometry x="820" y="126" width="100" height="884" as="geometry" />
        </mxCell>
        <mxCell id="YFiqXwNewB6xpeX7jggf-80" value="" style="html=1;points=[[0,0,0,0,5],[0,1,0,0,-5],[1,0,0,0,5],[1,1,0,0,-5]];perimeter=orthogonalPerimeter;outlineConnect=0;targetShapes=umlLifeline;portConstraint=eastwest;newEdgeStyle={&quot;curved&quot;:0,&quot;rounded&quot;:0};fontFamily=Helvetica;fontSize=11;fontColor=default;labelBackgroundColor=none;" parent="YFiqXwNewB6xpeX7jggf-100" vertex="1">
          <mxGeometry x="45" y="450" width="10" height="50" as="geometry" />
        </mxCell>
        <mxCell id="YFiqXwNewB6xpeX7jggf-87" value="" style="html=1;points=[[0,0,0,0,5],[0,1,0,0,-5],[1,0,0,0,5],[1,1,0,0,-5]];perimeter=orthogonalPerimeter;outlineConnect=0;targetShapes=umlLifeline;portConstraint=eastwest;newEdgeStyle={&quot;curved&quot;:0,&quot;rounded&quot;:0};fontFamily=Helvetica;fontSize=11;fontColor=default;labelBackgroundColor=none;" parent="YFiqXwNewB6xpeX7jggf-100" vertex="1">
          <mxGeometry x="45" y="724" width="10" height="50" as="geometry" />
        </mxCell>
        <mxCell id="YFiqXwNewB6xpeX7jggf-93" value="" style="html=1;points=[[0,0,0,0,5],[0,1,0,0,-5],[1,0,0,0,5],[1,1,0,0,-5]];perimeter=orthogonalPerimeter;outlineConnect=0;targetShapes=umlLifeline;portConstraint=eastwest;newEdgeStyle={&quot;curved&quot;:0,&quot;rounded&quot;:0};fontFamily=Helvetica;fontSize=11;fontColor=default;labelBackgroundColor=none;" parent="YFiqXwNewB6xpeX7jggf-100" vertex="1">
          <mxGeometry x="45" y="825" width="10" height="20" as="geometry" />
        </mxCell>
        <mxCell id="YFiqXwNewB6xpeX7jggf-103" value="&amp;lt;&amp;lt;create&amp;gt;&amp;gt;&lt;div&gt;2: OknoWynikowe&lt;/div&gt;" style="edgeStyle=orthogonalEdgeStyle;curved=0;rounded=0;orthogonalLoop=1;jettySize=auto;html=1;entryX=0.018;entryY=0.004;entryDx=0;entryDy=0;entryPerimeter=0;dashed=1;dashPattern=12 12;strokeColor=default;align=center;verticalAlign=middle;fontFamily=Helvetica;fontSize=11;fontColor=default;labelBackgroundColor=none;endArrow=open;endFill=0;endSize=10;" parent="1" source="YFiqXwNewB6xpeX7jggf-18" target="YFiqXwNewB6xpeX7jggf-100" edge="1">
          <mxGeometry relative="1" as="geometry">
            <Array as="points">
              <mxPoint x="646" y="129" />
            </Array>
          </mxGeometry>
        </mxCell>
        <mxCell id="YFiqXwNewB6xpeX7jggf-101" value="" style="shape=umlDestroy;whiteSpace=wrap;html=1;strokeWidth=3;targetShapes=umlLifeline;fontFamily=Helvetica;fontSize=11;fontColor=default;labelBackgroundColor=none;" parent="1" vertex="1">
          <mxGeometry x="855" y="990" width="30" height="30" as="geometry" />
        </mxCell>
        <mxCell id="YFiqXwNewB6xpeX7jggf-75" value="[CzyWolny=true]" style="text;strokeColor=none;align=center;fillColor=none;html=1;verticalAlign=middle;whiteSpace=wrap;rounded=0;fontFamily=Helvetica;fontSize=11;fontColor=default;labelBackgroundColor=none;" parent="1" vertex="1">
          <mxGeometry x="435" y="450" width="60" height="30" as="geometry" />
        </mxCell>
        <mxCell id="YFiqXwNewB6xpeX7jggf-106" value="[UML 2.0]" style="text;strokeColor=none;align=center;fillColor=none;html=1;verticalAlign=middle;whiteSpace=wrap;rounded=0;fontFamily=Helvetica;fontSize=11;fontColor=default;labelBackgroundColor=none;" parent="1" vertex="1">
          <mxGeometry x="50" y="-30" width="60" height="30" as="geometry" />
        </mxCell>
        <mxCell id="uE2uMthaSzWmi_VO4Wzg-1" value="&amp;lt;&amp;lt;create&amp;gt;&amp;gt;&lt;div&gt;12: Rezerwacja()&lt;/div&gt;" style="edgeStyle=orthogonalEdgeStyle;rounded=0;orthogonalLoop=1;jettySize=auto;html=1;curved=0;dashed=1;dashPattern=12 12;endArrow=open;endFill=0;endSize=10;labelBackgroundColor=none;" edge="1" parent="1" source="YFiqXwNewB6xpeX7jggf-87" target="uE2uMthaSzWmi_VO4Wzg-3">
          <mxGeometry relative="1" as="geometry">
            <mxPoint x="1119.5" y="875" as="targetPoint" />
          </mxGeometry>
        </mxCell>
        <mxCell id="uE2uMthaSzWmi_VO4Wzg-4" style="edgeStyle=orthogonalEdgeStyle;rounded=0;orthogonalLoop=1;jettySize=auto;html=1;dashed=1;endArrow=none;endFill=0;" edge="1" parent="1" source="uE2uMthaSzWmi_VO4Wzg-3">
          <mxGeometry relative="1" as="geometry">
            <mxPoint x="1055" y="1040" as="targetPoint" />
          </mxGeometry>
        </mxCell>
        <mxCell id="uE2uMthaSzWmi_VO4Wzg-3" value=": Rezerwacja" style="html=1;whiteSpace=wrap;" vertex="1" parent="1">
          <mxGeometry x="1000" y="850" width="110" height="50" as="geometry" />
        </mxCell>
      </root>
    </mxGraphModel>
  </diagram>
</mxfile>
